<svg width="56" height="56" viewBox="0 0 56 56" fill="none" xmlns="http://www.w3.org/2000/svg">
<path d="M8.34967 1.37445L28 21.0239L47.5485 1.47626C47.9803 1.01667 48.5005 0.649017 49.0778 0.395343C49.6552 0.141669 50.2778 0.00719978 50.9084 0C52.2586 0 53.5534 0.536323 54.5081 1.49099C55.4628 2.44565 55.9992 3.74045 55.9992 5.09054C56.011 5.71465 55.8952 6.33461 55.6589 6.91235C55.4225 7.4901 55.0706 8.01346 54.6247 8.4503L34.8216 27.998L54.6247 47.8002C55.4637 48.621 55.9557 49.7325 55.9992 50.9054C55.9992 52.2555 55.4628 53.5503 54.5081 54.505C53.5534 55.4597 52.2586 55.996 50.9084 55.996C50.2596 56.0229 49.6123 55.9146 49.0076 55.678C48.4029 55.4414 47.854 55.0816 47.3958 54.6215L28 34.972L8.40058 54.5706C7.97044 55.0149 7.45657 55.3696 6.88864 55.6142C6.3207 55.8588 5.70993 55.9886 5.09159 55.996C3.74143 55.996 2.44658 55.4597 1.49188 54.505C0.537174 53.5503 0.0008283 52.2555 0.0008283 50.9054C-0.0110408 50.2813 0.104758 49.6614 0.34112 49.0836C0.577481 48.5059 0.929419 47.9825 1.37533 47.5457L21.1784 27.998L1.37533 8.19577C0.536299 7.37497 0.0443014 6.26347 0.0008283 5.09054C0.0008283 3.74045 0.537174 2.44565 1.49188 1.49099C2.44658 0.536323 3.74143 0 5.09159 0C6.31337 0.0152716 7.48424 0.509054 8.34967 1.37445Z" fill="black"/>
</svg>
